<?xml version="1.0" standalone="no"?>
<!DOCTYPE svg PUBLIC "-//W3C//DTD SVG 20010904//EN"
 "http://www.w3.org/TR/2001/REC-SVG-20010904/DTD/svg10.dtd">
<svg version="1.0" xmlns="http://www.w3.org/2000/svg"
 width="233.000000pt" height="115.000000pt" viewBox="0 0 233.000000 115.000000"
 preserveAspectRatio="xMidYMid meet">

<g transform="translate(0.000000,115.000000) scale(0.100000,-0.100000)"
fill="#000000" stroke="none">
<path d="M1317 813 c-4 -3 -7 -57 -7 -120 l0 -113 25 0 c24 0 25 3 25 60 0 47
4 61 18 69 31 16 45 -3 50 -68 4 -51 7 -61 23 -61 17 0 19 8 19 68 0 84 -18
108 -75 99 l-35 -6 0 40 c0 31 -4 39 -18 39 -10 0 -22 -3 -25 -7z"/>
<path d="M1140 797 c-18 -9 -26 -22 -28 -48 -3 -41 16 -63 68 -76 38 -10 52
-39 25 -49 -9 -4 -32 0 -50 9 -24 11 -35 13 -44 4 -17 -17 -14 -25 19 -42 64
-33 140 -7 140 48 0 34 -20 55 -65 70 -28 10 -40 20 -40 33 0 19 9 21 65 13
39 -6 38 26 -1 40 -41 14 -58 14 -89 -2z"/>
<path d="M320 690 l0 -110 53 0 c117 0 181 84 130 170 -22 38 -52 50 -123 50
l-60 0 0 -110z m128 54 c15 -10 22 -25 22 -48 0 -44 -18 -65 -63 -73 l-37 -6
0 72 c0 71 0 71 28 71 15 0 38 -7 50 -16z"/>
<path d="M560 665 c0 -78 2 -85 20 -85 15 0 20 7 20 29 0 60 12 91 36 97 15 4
24 14 24 25 0 21 -12 24 -41 9 -13 -7 -19 -7 -19 0 0 5 -9 10 -20 10 -18 0
-20 -7 -20 -85z"/>
<path d="M705 725 c-54 -53 -14 -144 63 -145 39 0 92 46 92 80 0 29 -26 76
-45 84 -37 14 -86 6 -110 -19z m103 -52 c4 -37 -19 -58 -53 -49 -21 5 -25 12
-25 41 0 61 72 69 78 8z"/>
<path d="M900 634 c0 -107 1 -114 20 -114 17 0 20 7 20 40 0 37 2 40 19 30 77
-41 147 62 91 133 -19 24 -27 26 -85 25 l-65 -1 0 -113z m121 53 c8 -14 8 -26
0 -44 -16 -34 -62 -29 -75 9 -19 54 48 86 75 35z"/>
<path d="M1532 727 c-33 -35 -30 -99 4 -126 61 -48 144 -10 144 67 0 52 -32
82 -86 82 -29 0 -47 -6 -62 -23z m105 -43 c10 -26 -14 -64 -40 -64 -48 0 -65
56 -25 84 23 17 54 7 65 -20z"/>
<path d="M1720 634 l0 -114 25 0 c23 0 25 4 25 42 0 33 3 39 12 30 13 -13 47
-16 73 -6 26 10 48 62 40 100 -8 47 -37 62 -112 62 l-63 0 0 -114z m115 70
c34 -35 -3 -103 -42 -78 -25 16 -29 65 -7 81 23 17 29 16 49 -3z"/>
<path d="M1967 644 c7 -79 -8 -124 -58 -169 -72 -65 -145 -87 -287 -86 -144 1
-310 46 -442 122 -23 14 -28 15 -15 4 26 -22 162 -90 228 -115 185 -69 376
-66 497 8 55 34 107 100 116 148 7 39 -6 97 -30 129 -13 18 -14 14 -9 -41z"/>
<path d="M1150 481 c34 -29 162 -100 240 -134 151 -66 337 -87 449 -50 69 22
138 83 147 129 3 19 4 37 2 39 -2 3 -18 -15 -36 -40 -17 -24 -45 -51 -62 -60
-170 -88 -457 -44 -720 110 -33 20 -38 21 -20 6z"/>
</g>
</svg>
